<svg width="180" height="37" viewBox="0 0 180 37" fill="none" xmlns="http://www.w3.org/2000/svg">
<path d="M45.6889 27.7652C45.6889 28.5538 45.5373 29.2968 45.234 29.9943C44.9307 30.6919 44.5213 31.2984 44.0057 31.814C43.4902 32.3296 42.8836 32.7238 42.1709 33.0271C41.4733 33.3152 40.7152 33.4669 39.9115 33.4669C39.1078 33.4669 38.3647 33.3152 37.652 33.0271C36.9545 32.739 36.3328 32.3296 35.8324 31.814C35.3168 31.2984 34.9225 30.707 34.6192 29.9943C34.316 29.2968 34.1643 28.5538 34.1643 27.7652C34.1643 26.9767 34.316 26.2337 34.6192 25.5361C34.9225 24.8386 35.3168 24.232 35.8324 23.7165C36.3479 23.2009 36.9545 22.8066 37.652 22.5034C38.3496 22.2152 39.1078 22.0636 39.9115 22.0636C40.7152 22.0636 41.4582 22.2152 42.1709 22.5034C42.8684 22.7915 43.4902 23.2009 44.0057 23.7165C44.5213 24.232 44.9307 24.8386 45.234 25.5361C45.5524 26.2337 45.6889 26.9767 45.6889 27.7652ZM44.0057 27.7652C44.0057 27.1738 43.8996 26.6279 43.6873 26.1124C43.475 25.5968 43.1869 25.157 42.8229 24.7931C42.459 24.414 42.0344 24.1259 41.534 23.9136C41.0336 23.7013 40.5029 23.5952 39.9266 23.5952C39.3504 23.5952 38.8348 23.7013 38.3344 23.9136C37.834 24.1259 37.4094 24.414 37.0455 24.7931C36.6815 25.1722 36.3934 25.612 36.1811 26.1124C35.9688 26.6279 35.8627 27.1738 35.8627 27.7652C35.8627 28.3566 35.9688 28.9025 36.1811 29.4181C36.3934 29.9337 36.6815 30.3734 37.0455 30.7374C37.4094 31.1013 37.834 31.4046 38.3344 31.6169C38.8348 31.8292 39.3656 31.9353 39.9266 31.9353C40.4877 31.9353 41.0336 31.8292 41.534 31.6169C42.0344 31.4046 42.459 31.1165 42.8229 30.7374C43.1869 30.3734 43.475 29.9337 43.6873 29.4181C43.8996 28.9025 44.0057 28.3566 44.0057 27.7652Z" fill="white"/>
<path d="M47.2508 36.5603V25.2632H48.8127V26.0214C49.1463 25.7332 49.5254 25.5209 49.95 25.3693C50.3746 25.2177 50.8143 25.1418 51.2693 25.1418C51.8303 25.1418 52.3611 25.248 52.8615 25.4603C53.3619 25.6726 53.7865 25.9759 54.1504 26.3398C54.5143 26.7189 54.8024 27.1586 55.0147 27.6591C55.227 28.1595 55.3332 28.7054 55.3332 29.2664C55.3332 29.8427 55.227 30.3886 55.0147 30.889C54.8024 31.3894 54.5143 31.8291 54.1504 32.2082C53.7865 32.5873 53.3467 32.8755 52.8463 33.0877C52.3459 33.3 51.8 33.4062 51.2238 33.4062C50.7688 33.4062 50.3442 33.3304 49.9348 33.1939C49.5254 33.0574 49.1615 32.8603 48.8279 32.6177V36.5451H47.2508V36.5603ZM51.057 26.5066C50.5869 26.5066 50.1774 26.5976 49.7983 26.7644C49.4192 26.9312 49.1008 27.1586 48.843 27.4619V31.1164C49.1008 31.4046 49.4192 31.632 49.7983 31.7988C50.1926 31.9656 50.602 32.0566 51.057 32.0566C51.8303 32.0566 52.4824 31.7836 52.9979 31.2529C53.5135 30.7222 53.7713 30.0701 53.7713 29.2968C53.7713 28.5082 53.4983 27.841 52.9676 27.3103C52.452 26.7796 51.8152 26.5066 51.057 26.5066Z" fill="white"/>
<path d="M56.4704 29.2664C56.4704 28.7054 56.5766 28.1595 56.7737 27.6591C56.986 27.1586 57.259 26.7189 57.6229 26.3398C57.9868 25.9607 58.4114 25.6726 58.8967 25.4603C59.3819 25.248 59.9127 25.1418 60.4889 25.1418C61.0348 25.1418 61.5504 25.248 62.0204 25.4603C62.5057 25.6726 62.9151 25.9759 63.2487 26.3398C63.5975 26.7189 63.8553 27.1586 64.0676 27.6742C64.2647 28.1898 64.3709 28.7357 64.3709 29.3271V29.782H58.0323C58.1385 30.4492 58.4418 30.9951 58.9422 31.4349C59.4426 31.8746 60.0491 32.0869 60.7467 32.0869C61.1409 32.0869 61.5049 32.0263 61.8688 31.905C62.2327 31.7836 62.536 31.6017 62.7786 31.3894L63.7946 32.3902C63.3245 32.7541 62.8393 33.0271 62.3389 33.1939C61.8385 33.3607 61.2926 33.4517 60.686 33.4517C60.0946 33.4517 59.5487 33.3455 59.0332 33.1332C58.5176 32.9209 58.0778 32.6328 57.6987 32.2537C57.3196 31.8898 57.0164 31.45 56.8041 30.9345C56.5766 30.4037 56.4704 29.8578 56.4704 29.2664ZM60.4586 26.4611C59.852 26.4611 59.3213 26.6582 58.8815 27.0677C58.4418 27.4619 58.1536 27.9775 58.0475 28.6144H62.809C62.7028 28.0078 62.4299 27.4923 61.9901 27.0828C61.5504 26.6734 61.0348 26.4611 60.4586 26.4611Z" fill="white"/>
<path d="M65.8569 33.2848V25.2631H67.434V26.0668C67.7524 25.7483 68.1164 25.5057 68.5106 25.3541C68.9201 25.1873 69.3598 25.1115 69.8451 25.1115C70.7549 25.1115 71.5131 25.3996 72.0893 25.991C72.6656 26.5824 72.9688 27.3254 72.9688 28.2504V33.3H71.407V28.5082C71.407 27.8864 71.225 27.4012 70.8762 27.0221C70.5123 26.6582 70.027 26.4762 69.4053 26.4762C68.9807 26.4762 68.6016 26.5672 68.268 26.7492C67.9344 26.9311 67.6463 27.1889 67.434 27.5225V33.3H65.8569V33.2848Z" fill="white"/>
<path d="M74 31.4652L75.016 30.2976C75.6074 30.8738 76.2139 31.3136 76.8357 31.6017C77.4574 31.8898 78.1246 32.0415 78.8221 32.0415C79.6258 32.0415 80.2627 31.8746 80.7631 31.5259C81.2635 31.1771 81.5062 30.7374 81.5062 30.2066C81.5062 29.7214 81.3394 29.3423 81.0057 29.0845C80.6721 28.8115 80.0959 28.6144 79.2771 28.4779L77.4271 28.1747C76.4111 28.0078 75.6529 27.6742 75.1525 27.2042C74.6521 26.7189 74.4094 26.0972 74.4094 25.3087C74.4094 24.3685 74.7734 23.5951 75.5164 23.0189C76.2594 22.4427 77.2451 22.1394 78.4734 22.1394C79.2467 22.1394 80.0353 22.2607 80.8086 22.5185C81.582 22.7763 82.2947 23.1402 82.9164 23.6255L82.0066 24.8841C81.4 24.4292 80.8086 24.0956 80.2021 23.8681C79.5955 23.6406 78.9889 23.5345 78.3975 23.5345C77.6848 23.5345 77.1086 23.6861 76.6689 23.9894C76.2291 24.2927 76.0016 24.6869 76.0016 25.1722C76.0016 25.6119 76.1533 25.9607 76.4566 26.2033C76.7598 26.446 77.2603 26.6279 77.973 26.7341L79.7623 27.0222C80.9299 27.2042 81.7791 27.5529 82.3402 28.0533C82.8861 28.5537 83.159 29.221 83.159 30.0853C83.159 30.5857 83.0529 31.0558 82.8406 31.4652C82.6283 31.8746 82.3402 32.2386 81.9459 32.5419C81.5668 32.8451 81.0967 33.0726 80.5508 33.2394C80.0049 33.4062 79.3984 33.482 78.7463 33.482C77.8668 33.482 77.0176 33.3152 76.1988 32.9665C75.3648 32.5874 74.6369 32.0869 74 31.4652Z" fill="white"/>
<path d="M86.0401 21.9119V33.3H84.4631V22.2606L86.0401 21.9119ZM84.4631 33.2848V25.2631H86.0401V26.0668C86.3586 25.7483 86.7225 25.5057 87.1168 25.3541C87.5262 25.1873 87.966 25.1115 88.4512 25.1115C89.361 25.1115 90.1192 25.3996 90.6955 25.991C91.2717 26.5824 91.575 27.3254 91.575 28.2504V33.3H90.0131V28.5082C90.0131 27.8865 89.8311 27.4012 89.4823 27.0221C89.1184 26.6582 88.6332 26.4762 88.0115 26.4762C87.5869 26.4762 87.2078 26.5672 86.8742 26.7492C86.5406 26.9311 86.2524 27.1889 86.0401 27.5225V33.3H84.4631V33.2848Z" fill="white"/>
<path d="M94.1832 23.9742C93.9254 23.9742 93.6979 23.8833 93.5008 23.6861C93.3036 23.489 93.2127 23.2615 93.2127 23.0038C93.2127 22.746 93.3036 22.5185 93.5008 22.3214C93.6979 22.1242 93.9254 22.0333 94.1832 22.0333C94.4409 22.0333 94.6684 22.1242 94.8655 22.3214C95.0475 22.5185 95.1536 22.746 95.1536 23.0038C95.1536 23.2615 95.0627 23.489 94.8655 23.6861C94.6836 23.8681 94.4561 23.9742 94.1832 23.9742ZM94.9717 25.2632V33.2849H93.3946V25.2632H94.9717Z" fill="white"/>
<path d="M96.1545 25.2632H98.0197V24.05C98.0197 23.2463 98.2471 22.6095 98.7172 22.1545C99.1721 21.6996 99.8545 21.4722 100.749 21.4722C100.946 21.4722 101.143 21.4873 101.341 21.5177C101.538 21.548 101.72 21.5783 101.886 21.6238V22.9886C101.704 22.9431 101.538 22.8976 101.401 22.8824C101.25 22.8672 101.083 22.8521 100.901 22.8521C100.461 22.8521 100.127 22.9582 99.9151 23.1554C99.7028 23.3525 99.5967 23.6709 99.5967 24.0955V25.2783H101.902V26.5976H99.5967V33.3H98.0348V26.5976H96.1696V25.2632H96.1545Z" fill="white"/>
<path d="M104.282 31.2984V26.5824H102.584V25.2631H104.282V23.216L105.844 22.8369V25.2631H108.21V26.5824H105.844V30.9345C105.844 31.3439 105.935 31.632 106.117 31.7988C106.299 31.9656 106.602 32.0566 107.027 32.0566C107.254 32.0566 107.452 32.0414 107.634 32.0111C107.8 31.9808 107.982 31.9353 108.179 31.8595V33.1787C107.952 33.2545 107.709 33.3152 107.436 33.3455C107.164 33.391 106.906 33.4062 106.678 33.4062C105.905 33.4062 105.314 33.2242 104.889 32.8603C104.464 32.4963 104.282 31.9959 104.282 31.2984Z" fill="white"/>
<path d="M111.758 33.2849L116.338 22.2455H118.279L122.782 33.2849H120.978L119.704 30.055H114.761L113.472 33.2849H111.758ZM115.322 28.6902H119.173L117.248 23.8529L115.322 28.6902Z" fill="white"/>
<path d="M123.92 33.2849V22.2455H125.573V33.2849H123.92Z" fill="white"/>
<path d="M19.5614 12.8893C21.4569 12.8893 24.2016 12.4951 24.2016 10.2357C24.2016 10.0537 24.2016 9.88689 24.1561 9.72009L23.034 4.80697C22.7762 3.73033 22.5487 3.24509 20.6532 2.28976C19.1672 1.54673 15.9676 0.303284 15.0122 0.303284C14.1327 0.303284 13.875 1.44058 12.8286 1.44058C11.8127 1.44058 11.0696 0.591398 10.1143 0.591398C9.20446 0.591398 8.61307 1.21312 8.15815 2.48689C8.15815 2.48689 6.88438 6.08074 6.71757 6.61148C6.67208 6.71763 6.67208 6.82377 6.67208 6.89959C6.67208 8.30984 12.1766 12.8893 19.5614 12.8893ZM24.4897 11.1607C24.7475 12.4041 24.7475 12.5406 24.7475 12.6922C24.7475 14.8152 22.3668 15.998 19.2278 15.998C12.1311 15.998 5.92905 11.843 5.92905 9.09836C5.92905 8.67377 6.02003 8.27951 6.15651 7.9914C3.60897 8.11271 0.30323 8.56763 0.30323 11.4791C0.30323 16.2557 11.6155 22.1393 20.5774 22.1393C27.4467 22.1393 29.1754 19.0307 29.1754 16.5893C29.1602 14.6484 27.5073 12.4648 24.4897 11.1607Z" fill="#EE0000"/>
<path d="M24.4897 11.1606C24.7475 12.4041 24.7475 12.5405 24.7475 12.6922C24.7475 14.8151 22.3668 15.9979 19.2279 15.9979C12.1311 15.9979 5.92908 11.843 5.92908 9.09834C5.92908 8.67375 6.02007 8.27948 6.15654 7.99137L6.71761 6.61145C6.67212 6.7176 6.67212 6.82375 6.67212 6.89957C6.67212 8.30981 12.1766 12.8893 19.5615 12.8893C21.457 12.8893 24.2016 12.4951 24.2016 10.2356C24.2016 10.0537 24.2016 9.88686 24.1561 9.72006L24.4897 11.1606Z" fill="black"/>
<path d="M88.1328 14.2996C88.1328 16.1041 89.2246 16.9836 91.1959 16.9836C91.6811 16.9836 92.5 16.8774 93.0004 16.7258V14.6332C92.5758 14.7545 92.2574 14.8152 91.8328 14.8152C91.0139 14.8152 90.7106 14.5574 90.7106 13.7992V10.5844H93.0762V8.43114H90.7106V5.70163L88.1328 6.26269V8.43114H86.4344V10.5844H88.1479V14.2996H88.1328ZM80.111 14.3451C80.111 13.784 80.6721 13.5111 81.5213 13.5111C82.0823 13.5111 82.5828 13.5869 83.0528 13.7082V14.8C82.5676 15.0729 82.0217 15.1943 81.4455 15.1943C80.6114 15.1943 80.111 14.8758 80.111 14.3451ZM80.8996 17.0139C81.8094 17.0139 82.5373 16.8168 83.2348 16.3619V16.8774H85.7824V11.4639C85.7824 9.40163 84.4024 8.2795 82.0823 8.2795C80.7934 8.2795 79.5196 8.58278 78.1397 9.2045L79.0647 11.1C80.0504 10.6906 80.8844 10.4328 81.6123 10.4328C82.6738 10.4328 83.2196 10.8422 83.2196 11.6914V12.1008C82.6131 11.934 81.9762 11.8582 81.309 11.8582C79.1406 11.8582 77.8365 12.768 77.8365 14.3906C77.8365 15.8766 79.0192 17.0139 80.8996 17.0139ZM66.8881 16.8623H69.6328V12.4951H74.2274V16.8623H76.9721V5.70163H74.2274V9.99302H69.6328V5.70163H66.8881V16.8623ZM56.425 12.6467C56.425 11.4336 57.3803 10.5086 58.6389 10.5086C59.3365 10.5086 59.9733 10.7512 60.4283 11.1606V14.1024C59.9733 14.5422 59.3668 14.7697 58.6389 14.7697C57.3955 14.7848 56.425 13.8598 56.425 12.6467ZM60.4586 16.8623H63.0061V5.14056L60.4283 5.70163V8.87089C59.7914 8.50696 59.0635 8.30983 58.275 8.30983C55.8184 8.30983 53.8926 10.2053 53.8926 12.6315C53.8926 15.0578 55.7881 16.9684 58.1992 16.9684C59.0332 16.9684 59.8065 16.7106 60.4586 16.2406V16.8623ZM48.752 10.3873C49.5709 10.3873 50.2533 10.918 50.5262 11.7217H47.0082C47.266 10.8877 47.9028 10.3873 48.752 10.3873ZM44.4 12.6619C44.4 15.1184 46.4168 17.0291 48.9946 17.0291C50.4201 17.0291 51.4512 16.65 52.5127 15.7553L50.7992 14.2389C50.4049 14.6484 49.8135 14.8758 49.116 14.8758C48.1606 14.8758 47.3721 14.3451 47.0385 13.5414H53.0434V12.8893C53.0434 10.2053 51.2389 8.2795 48.7824 8.2795C46.341 8.29466 44.4 10.2053 44.4 12.6619ZM39.9569 8.05204C40.8668 8.05204 41.3824 8.62827 41.3824 9.31065C41.3824 9.99302 40.8668 10.5693 39.9569 10.5693H37.2426V8.05204H39.9569ZM34.4979 16.8623H37.2426V12.7984H39.3352L41.443 16.8623H44.5061L42.0496 12.4041C43.3688 11.8279 44.1574 10.6299 44.1574 9.26515C44.1574 7.24835 42.5803 5.70163 40.2147 5.70163H34.4979V16.8623Z" fill="white"/>
</svg>
