<svg width="48" height="36" viewBox="0 0 48 36" fill="none" xmlns="http://www.w3.org/2000/svg">
<path d="M32.0168 20.7475C35.1691 20.7475 39.7361 20.1 39.7361 16.3825C39.7361 16.0925 39.7285 15.81 39.6579 15.5275L37.7791 7.4375C37.3429 5.66 36.9646 4.85 33.8098 3.2875C31.3662 2.0475 26.0376 0 24.4615 0C22.9938 0 22.56 1.885 20.82 1.885C19.08 1.885 17.8846 0.485 16.3085 0.485C14.7324 0.485 13.8069 1.51 13.0478 3.61C13.0478 3.61 10.927 9.5375 10.6546 10.4C10.5991 10.5625 10.5991 10.7425 10.5991 10.885C10.5991 13.19 19.7508 20.7475 32.0193 20.7475M40.2278 17.89C40.6641 19.9375 40.6641 20.1525 40.6641 20.4225C40.6641 23.925 36.6948 25.865 31.4771 25.865C19.6802 25.865 9.35085 19.02 9.35085 14.495C9.35085 13.795 9.51476 13.1475 9.73164 12.6625C5.48997 12.8775 0 13.6325 0 18.43C0 26.2975 18.8101 36 33.7039 36C45.1201 36 48 30.88 48 26.8375C48 23.6575 45.2285 20.0475 40.2253 17.89" fill="#EE0000"/>
<path d="M39.658 15.5275C39.7286 15.81 39.7362 16.0925 39.7362 16.3825C39.7362 20.1 35.1692 20.7475 32.017 20.7475C19.7484 20.7475 10.5968 13.19 10.5968 10.885C10.5968 10.7425 10.5968 10.5625 10.6522 10.4L9.72674 12.665C9.50986 13.15 9.34595 13.795 9.34595 14.4975C9.34595 19.025 19.6753 25.8675 31.4722 25.8675C36.6899 25.8675 40.6592 23.9275 40.6592 20.425C40.6592 20.155 40.6592 19.94 40.2229 17.8925L39.6555 15.5275H39.658Z" fill="black"/>
</svg>
